<svg width="132" height="30" viewBox="0 0 132 30" fill="none" xmlns="http://www.w3.org/2000/svg">
<path d="M29.825 26.7561C29.825 27.3105 29.6486 27.7768 29.2958 28.1548C28.943 28.5076 28.4894 28.684 27.935 28.684C27.4058 28.684 26.9521 28.5076 26.5741 28.1548C26.2213 27.7768 26.0449 27.3105 26.0449 26.7561V10.5773C26.0449 10.0229 26.2213 9.56925 26.5741 9.21645C26.9521 8.83844 27.4058 8.64943 27.935 8.64943C28.4894 8.64943 28.943 8.83844 29.2958 9.21645C29.6486 9.56925 29.825 10.0229 29.825 10.5773V26.7561ZM27.8972 6.15456C27.1664 6.15456 26.6371 6.02856 26.3095 5.77655C25.9819 5.49934 25.8181 5.04573 25.8181 4.41571V3.8109C25.8181 3.18088 25.9945 2.73987 26.3473 2.48786C26.7001 2.23585 27.2294 2.10985 27.935 2.10985C28.691 2.10985 29.2328 2.24846 29.5604 2.52566C29.888 2.77767 30.0518 3.20608 30.0518 3.8109V4.41571C30.0518 5.07093 29.8754 5.52454 29.5226 5.77655C29.195 6.02856 28.6532 6.15456 27.8972 6.15456Z" fill="#262626"/>
<path d="M51.2021 8.49823C51.7565 8.49823 52.2101 8.68723 52.5629 9.06524C52.9157 9.41805 53.0922 9.87166 53.0922 10.4261V26.7561C53.0922 27.3105 52.9157 27.7768 52.5629 28.1548C52.2101 28.5076 51.7565 28.684 51.2021 28.684C50.6729 28.684 50.2193 28.5076 49.8413 28.1548C49.4885 27.7768 49.3121 27.3105 49.3121 26.7561V24.0345L50.1059 24.1479C50.1059 24.6015 49.9169 25.1055 49.5389 25.6599C49.186 26.2143 48.6946 26.7561 48.0646 27.2853C47.4346 27.7894 46.6912 28.2178 45.8344 28.5706C44.9775 28.8982 44.0577 29.062 43.0749 29.062C41.336 29.062 39.7736 28.621 38.3876 27.739C37.0015 26.8317 35.9053 25.5969 35.0989 24.0345C34.2924 22.472 33.8892 20.6954 33.8892 18.7045C33.8892 16.6633 34.2924 14.874 35.0989 13.3368C35.9053 11.7743 36.9889 10.5521 38.3497 9.67006C39.7358 8.78803 41.273 8.34702 42.9615 8.34702C44.0451 8.34702 45.0405 8.52343 45.9478 8.87624C46.8802 9.22905 47.6866 9.68266 48.367 10.2371C49.0474 10.7915 49.5641 11.3837 49.9169 12.0137C50.2949 12.6185 50.4839 13.1982 50.4839 13.7526L49.3121 13.866V10.4261C49.3121 9.89686 49.4885 9.44325 49.8413 9.06524C50.2193 8.68723 50.6729 8.49823 51.2021 8.49823ZM43.4907 25.5843C44.6751 25.5843 45.721 25.2819 46.6282 24.6771C47.5354 24.0723 48.241 23.2532 48.745 22.22C49.249 21.1616 49.5011 19.9897 49.5011 18.7045C49.5011 17.3941 49.249 16.2222 48.745 15.189C48.241 14.1558 47.5354 13.3368 46.6282 12.7319C45.721 12.1271 44.6751 11.8247 43.4907 11.8247C42.3315 11.8247 41.2982 12.1271 40.391 12.7319C39.509 13.3368 38.8034 14.1558 38.2741 15.189C37.7701 16.2222 37.5181 17.3941 37.5181 18.7045C37.5181 19.9897 37.7701 21.1616 38.2741 22.22C38.8034 23.2532 39.509 24.0723 40.391 24.6771C41.2982 25.2819 42.3315 25.5843 43.4907 25.5843Z" fill="#262626"/>
<path d="M60.7693 2.18545C61.0717 2.18545 61.3867 2.26105 61.7143 2.41226C62.0419 2.56346 62.2939 2.77767 62.4704 3.05488L72.0718 17.6839L70.4464 17.6083L80.2368 3.05488C80.6401 2.47526 81.1567 2.18545 81.7867 2.18545C82.2907 2.18545 82.7317 2.37446 83.1097 2.75247C83.5129 3.10528 83.7145 3.55889 83.7145 4.11331V26.7561C83.7145 27.3105 83.5381 27.7768 83.1853 28.1548C82.8325 28.5076 82.3663 28.684 81.7867 28.684C81.1819 28.684 80.6905 28.5076 80.3124 28.1548C79.9596 27.7768 79.7832 27.3105 79.7832 26.7561V7.591L80.9929 7.85561L72.6766 20.519C72.5002 20.7458 72.2734 20.9474 71.9962 21.1238C71.719 21.275 71.4292 21.338 71.1268 21.3128C70.8496 21.338 70.5598 21.275 70.2574 21.1238C69.9802 20.9474 69.7534 20.7458 69.577 20.519L61.5631 8.04461L62.4704 6.53257V26.7561C62.4704 27.3105 62.294 27.7768 61.9411 28.1548C61.6135 28.5076 61.1725 28.684 60.6181 28.684C60.0889 28.684 59.6479 28.5076 59.2951 28.1548C58.9675 27.7768 58.8037 27.3105 58.8037 26.7561V4.11331C58.8037 3.58409 58.9927 3.13048 59.3707 2.75247C59.7739 2.37446 60.2401 2.18545 60.7693 2.18545Z" fill="#262626"/>
<path d="M105.763 8.49823C106.317 8.49823 106.771 8.68723 107.123 9.06524C107.476 9.41805 107.653 9.87166 107.653 10.4261V26.7561C107.653 27.3105 107.476 27.7768 107.123 28.1548C106.771 28.5076 106.317 28.684 105.763 28.684C105.233 28.684 104.78 28.5076 104.402 28.1548C104.049 27.7768 103.873 27.3105 103.873 26.7561V24.0345L104.666 24.1479C104.666 24.6015 104.477 25.1055 104.099 25.6599C103.747 26.2143 103.255 26.7561 102.625 27.2853C101.995 27.7894 101.252 28.2178 100.395 28.5706C99.538 28.8982 98.6182 29.062 97.6354 29.062C95.8965 29.062 94.3341 28.621 92.948 27.739C91.562 26.8317 90.4658 25.5969 89.6593 24.0345C88.8529 22.472 88.4497 20.6954 88.4497 18.7045C88.4497 16.6633 88.8529 14.874 89.6593 13.3368C90.4658 11.7743 91.5494 10.5521 92.9102 9.67006C94.2963 8.78803 95.8335 8.34702 97.522 8.34702C98.6056 8.34702 99.601 8.52343 100.508 8.87624C101.441 9.22905 102.247 9.68266 102.928 10.2371C103.608 10.7915 104.125 11.3837 104.477 12.0137C104.855 12.6185 105.044 13.1982 105.044 13.7526L103.873 13.866V10.4261C103.873 9.89686 104.049 9.44325 104.402 9.06524C104.78 8.68723 105.233 8.49823 105.763 8.49823ZM98.0512 25.5843C99.2356 25.5843 100.281 25.2819 101.189 24.6771C102.096 24.0723 102.801 23.2532 103.306 22.22C103.81 21.1616 104.062 19.9897 104.062 18.7045C104.062 17.3941 103.81 16.2222 103.306 15.189C102.801 14.1558 102.096 13.3368 101.189 12.7319C100.281 12.1271 99.2356 11.8247 98.0512 11.8247C96.8919 11.8247 95.8587 12.1271 94.9515 12.7319C94.0695 13.3368 93.3638 14.1558 92.8346 15.189C92.3306 16.2222 92.0786 17.3941 92.0786 18.7045C92.0786 19.9897 92.3306 21.1616 92.8346 22.22C93.3638 23.2532 94.0695 24.0723 94.9515 24.6771C95.8587 25.2819 96.8919 25.5843 98.0512 25.5843ZM93.2882 6.45697C92.7842 6.45697 92.3684 6.26797 92.0408 5.88995C91.7384 5.48674 91.5998 4.93233 91.625 4.22671C91.6754 3.39509 92.0534 2.67687 92.759 2.07205C93.4646 1.44203 94.4979 1.12702 95.8587 1.12702C96.4383 1.12702 96.9801 1.25303 97.4842 1.50503C97.9882 1.75704 98.467 2.03425 98.9206 2.33666C99.3742 2.63906 99.79 2.91627 100.168 3.16828C100.571 3.39509 100.937 3.50849 101.264 3.50849C101.567 3.50849 101.793 3.42029 101.945 3.24388C102.121 3.06748 102.197 2.81547 102.171 2.48786C102.045 2.00905 102.108 1.63104 102.36 1.35383C102.612 1.07662 102.94 0.938019 103.343 0.938019C103.873 0.938019 104.288 1.13962 104.591 1.54283C104.893 1.92085 105.044 2.45006 105.044 3.13048C104.994 3.60929 104.83 4.10071 104.553 4.60472C104.276 5.08353 103.847 5.48674 103.268 5.81435C102.713 6.14196 101.982 6.30577 101.075 6.30577C100.596 6.30577 100.092 6.19236 99.5632 5.96556C99.0592 5.71355 98.5552 5.43634 98.0512 5.13393C97.5472 4.83153 97.0683 4.56692 96.6147 4.34011C96.1863 4.0881 95.7957 3.9621 95.4429 3.9621C95.1657 3.9621 94.9263 4.0503 94.7247 4.22671C94.5231 4.37791 94.4349 4.61732 94.4601 4.94493C94.5861 5.39854 94.5105 5.76395 94.2333 6.04116C93.9813 6.31837 93.6663 6.45697 93.2882 6.45697Z" fill="#262626"/>
<path d="M132 18.7423C132 20.7584 131.559 22.5476 130.677 24.1101C129.795 25.6473 128.598 26.8569 127.086 27.739C125.574 28.621 123.873 29.062 121.983 29.062C120.093 29.062 118.392 28.621 116.88 27.739C115.368 26.8569 114.158 25.6473 113.251 24.1101C112.369 22.5476 111.928 20.7584 111.928 18.7423C111.928 16.7011 112.369 14.9118 113.251 13.3746C114.158 11.8121 115.368 10.5899 116.88 9.70786C118.392 8.80063 120.093 8.34702 121.983 8.34702C123.873 8.34702 125.574 8.80063 127.086 9.70786C128.598 10.5899 129.795 11.8121 130.677 13.3746C131.559 14.9118 132 16.7011 132 18.7423ZM128.22 18.7423C128.22 17.3563 127.943 16.1592 127.388 15.1512C126.834 14.118 126.078 13.3116 125.12 12.7319C124.188 12.1271 123.142 11.8247 121.983 11.8247C120.824 11.8247 119.765 12.1271 118.807 12.7319C117.85 13.3116 117.094 14.118 116.539 15.1512C115.985 16.1592 115.708 17.3563 115.708 18.7423C115.708 20.0779 115.985 21.2624 116.539 22.2956C117.094 23.3288 117.85 24.1353 118.807 24.7149C119.765 25.2945 120.824 25.5843 121.983 25.5843C123.142 25.5843 124.188 25.2945 125.12 24.7149C126.078 24.1353 126.834 23.3288 127.388 22.2956C127.943 21.2624 128.22 20.0779 128.22 18.7423Z" fill="#262626"/>
<path d="M17.232 2.96202C18.975 2.05031 21.0008 3.63249 20.3515 5.39845L12.2952 27.3111C11.6222 29.1416 8.85337 29.1416 8.1804 27.3111L0.124115 5.39845C-0.525147 3.63249 1.50064 2.05032 3.24367 2.96204L8.64452 5.78705C9.6345 6.30487 10.8411 6.30487 11.831 5.78705L17.232 2.96202Z" fill="#25C78F"/>
</svg>
