<svg width="15" height="16" viewBox="0 0 15 16" fill="none" xmlns="http://www.w3.org/2000/svg">
<g clip-path="url(#clip0_26_426)">
<path d="M8.2035 15.1477C8.73188 14.502 9.37767 13.6311 10.1409 12.5352C10.9041 11.4589 11.589 10.3434 12.1957 9.18885C12.7828 8.03425 13.0959 7.01663 13.135 6.13601C13.0959 4.53131 12.5479 3.20059 11.4912 2.14384C10.4344 1.08708 9.1037 0.539139 7.499 0.5C5.8943 0.539139 4.56358 1.08708 3.50683 2.14384C2.45008 3.20059 1.90213 4.53131 1.86299 6.13601C1.90213 7.01663 2.21524 8.03425 2.80233 9.18885C3.40898 10.3434 4.09391 11.4589 4.85712 12.5352C5.62033 13.6311 6.26612 14.502 6.7945 15.1477C6.99019 15.3826 7.22503 15.5 7.499 15.5C7.77297 15.5 8.00781 15.3826 8.2035 15.1477ZM7.499 4.25734C8.2035 4.27691 8.74166 4.59002 9.11348 5.19667C9.46573 5.8229 9.46573 6.44912 9.11348 7.07534C8.74166 7.682 8.2035 7.99511 7.499 8.01468C6.7945 7.99511 6.25634 7.682 5.88452 7.07534C5.53227 6.44912 5.53227 5.8229 5.88452 5.19667C6.25634 4.59002 6.7945 4.27691 7.499 4.25734Z" fill="#25C78F"/>
</g>
<defs>
<clipPath id="clip0_26_426">
<rect width="15" height="15" fill="white" transform="translate(-0.000999451 0.5)"/>
</clipPath>
</defs>
</svg>
